<svg xmlns="http://www.w3.org/2000/svg" version="1.1" xmlns:xlink="http://www.w3.org/1999/xlink" xmlns:svgjs="http://svgjs.dev/svgjs" width="1500" height="1500" viewBox="0 0 1500 1500"><rect width="1500" height="1500" fill="#000000"></rect><g transform="matrix(0.6666666666666666,0,0,0.6666666666666666,249.39393939393938,607.0600166556862)"><svg viewBox="0 0 396 113" data-background-color="#000000" preserveAspectRatio="xMidYMid meet" height="428" width="1500" xmlns="http://www.w3.org/2000/svg" xmlns:xlink="http://www.w3.org/1999/xlink"><g id="tight-bounds" transform="matrix(1,0,0,1,0.2400000000000091,0.10824106743268658)"><svg viewBox="0 0 395.52 112.78351786513464" height="112.78351786513464" width="395.52"><g><svg viewBox="0 0 395.52 112.78351786513464" height="112.78351786513464" width="395.52"><g transform="matrix(1,0,0,1,0,69.70473869098743)"><svg viewBox="0 0 395.52 43.078779174147215" height="43.078779174147215" width="395.52"><g id="textblocktransform"><svg viewBox="0 0 395.52 43.078779174147215" height="43.078779174147215" width="395.52" id="textblock"><g><svg viewBox="0 0 395.52 43.078779174147215" height="43.078779174147215" width="395.52"><g transform="matrix(1,0,0,1,0,0)"><svg width="395.52" viewBox="3.6 -35.5 417.71 45.5" height="43.078779174147215" data-palette-color="url(#2a7c8e3f-674d-4230-8257-459e139e406c)"></svg></g></svg></g></svg></g></svg></g><g transform="matrix(1,0,0,1,173.35731555503412,0)"><svg viewBox="0 0 48.805368889931756 59.53487281867145" height="59.53487281867145" width="48.805368889931756"><g><svg xmlns="http://www.w3.org/2000/svg" data-name="Layer 1" viewBox="28.81 26.203485701691147 36.19033372416786 44.146514298308844" x="0" y="0" height="59.53487281867145" width="48.805368889931756" class="icon-icon-0" data-fill-palette-color="accent" id="icon-0"></svg></g></svg></g><g></g></svg></g><defs></defs><mask id="76a9751a-bdcb-4476-a0da-8550abee4706"><g id="SvgjsG2357"><svg viewBox="0 0 395.52 112.78351786513464" height="112.78351786513464" width="395.52"><g><svg viewBox="0 0 395.52 112.78351786513464" height="112.78351786513464" width="395.52"><g transform="matrix(1,0,0,1,0,69.70473869098743)"><svg viewBox="0 0 395.52 43.078779174147215" height="43.078779174147215" width="395.52"><g id="SvgjsG2356"><svg viewBox="0 0 395.52 43.078779174147215" height="43.078779174147215" width="395.52" id="SvgjsSvg2355"><g><svg viewBox="0 0 395.52 43.078779174147215" height="43.078779174147215" width="395.52"><g transform="matrix(1,0,0,1,0,0)"><svg width="395.52" viewBox="3.6 -35.5 417.71 45.5" height="43.078779174147215" data-palette-color="url(#2a7c8e3f-674d-4230-8257-459e139e406c)"><path d="M15.5 0.4Q11.95 0.4 9.25-1.05 6.55-2.5 5.08-5.13 3.6-7.75 3.6-11.2L3.6-11.2 3.6-23.8Q3.6-27.25 5.08-29.88 6.55-32.5 9.25-33.95 11.95-35.4 15.5-35.4L15.5-35.4Q19.05-35.4 21.78-33.95 24.5-32.5 25.98-29.88 27.45-27.25 27.45-23.8L27.45-23.8 27.45-11.2Q27.45-7.75 25.98-5.13 24.5-2.5 21.78-1.05 19.05 0.4 15.5 0.4L15.5 0.4ZM15.5-2.65Q19.3-2.65 21.6-4.95 23.9-7.25 23.9-11.05L23.9-11.05 23.9-23.85Q23.9-27.65 21.6-29.98 19.3-32.3 15.5-32.3L15.5-32.3Q11.75-32.3 9.45-29.98 7.15-27.65 7.15-23.85L7.15-23.85 7.15-11.05Q7.15-7.25 9.45-4.95 11.75-2.65 15.5-2.65L15.5-2.65ZM46.45-22.85Q46.45-22.35 45.95-22.35L45.95-22.35 40.3-22.35Q40.1-22.35 40.1-22.15L40.1-22.15 40.1-7.4Q40.1-5 41.17-4.03 42.25-3.05 44.55-3.05L44.55-3.05 45.8-3.05Q46.3-3.05 46.3-2.55L46.3-2.55 46.3-0.5Q46.3 0 45.8 0L45.8 0Q45.2 0.05 43.95 0.05L43.95 0.05Q40.35 0.05 38.5-1.3 36.65-2.65 36.65-6.3L36.65-6.3 36.65-22.15Q36.65-22.35 36.45-22.35L36.45-22.35 33.4-22.35Q32.9-22.35 32.9-22.85L32.9-22.85 32.9-24.8Q32.9-25.3 33.4-25.3L33.4-25.3 36.45-25.3Q36.65-25.3 36.65-25.5L36.65-25.5 36.65-31.3Q36.65-31.8 37.15-31.8L37.15-31.8 39.6-31.8Q40.1-31.8 40.1-31.3L40.1-31.3 40.1-25.5Q40.1-25.3 40.3-25.3L40.3-25.3 45.95-25.3Q46.45-25.3 46.45-24.8L46.45-24.8 46.45-22.85ZM62.05-25.7Q66.55-25.7 69-23.4 71.45-21.1 71.45-17.3L71.45-17.3 71.45-0.5Q71.45 0 70.95 0L70.95 0 68.4 0Q67.9 0 67.9-0.5L67.9-0.5 67.9-2.55Q67.9-2.65 67.82-2.7 67.75-2.75 67.65-2.65L67.65-2.65Q66.4-1.15 64.4-0.38 62.4 0.4 59.95 0.4L59.95 0.4Q56.4 0.4 54-1.4 51.59-3.2 51.59-6.9L51.59-6.9Q51.59-10.65 54.32-12.83 57.05-15 61.9-15L61.9-15 67.7-15Q67.9-15 67.9-15.2L67.9-15.2 67.9-17.1Q67.9-19.65 66.47-21.13 65.05-22.6 62.05-22.6L62.05-22.6Q59.65-22.6 58.15-21.68 56.65-20.75 56.3-19.1L56.3-19.1Q56.15-18.6 55.7-18.65L55.7-18.65 53-19Q52.45-19.1 52.55-19.4L52.55-19.4Q52.95-22.2 55.55-23.95 58.15-25.7 62.05-25.7L62.05-25.7ZM60.65-2.65Q63.59-2.65 65.75-4.13 67.9-5.6 67.9-8.1L67.9-8.1 67.9-12Q67.9-12.2 67.7-12.2L67.7-12.2 62.45-12.2Q59.15-12.2 57.15-10.85 55.15-9.5 55.15-7.1L55.15-7.1Q55.15-4.9 56.67-3.78 58.2-2.65 60.65-2.65L60.65-2.65ZM79.34 0Q78.84 0 78.84-0.5L78.84-0.5 78.84-34.5Q78.84-35 79.34-35L79.34-35 81.89-35Q82.39-35 82.39-34.5L82.39-34.5 82.39-14.05Q82.39-13.95 82.47-13.9 82.54-13.85 82.64-13.95L82.64-13.95 93.24-25.05Q93.49-25.3 93.84-25.3L93.84-25.3 96.84-25.3Q97.14-25.3 97.24-25.1 97.34-24.9 97.14-24.7L97.14-24.7 90.74-17.6Q90.64-17.5 90.69-17.35L90.69-17.35 98.34-0.6 98.39-0.4Q98.39 0 97.94 0L97.94 0 95.24 0Q94.84 0 94.69-0.4L94.69-0.4 88.24-15Q88.14-15.2 87.99-15.05L87.99-15.05 82.49-9.25Q82.39-9.15 82.39-9L82.39-9 82.39-0.5Q82.39 0 81.89 0L81.89 0 79.34 0ZM119.19-24.8Q119.19-25.3 119.69-25.3L119.69-25.3 122.24-25.3Q122.74-25.3 122.74-24.8L122.74-24.8 122.74-0.5Q122.74 0 122.24 0L122.24 0 119.69 0Q119.19 0 119.19-0.5L119.19-0.5 119.19-2.65Q119.19-2.75 119.09-2.8 118.99-2.85 118.94-2.75L118.94-2.75Q116.84 0.35 112.29 0.35L112.29 0.35Q109.89 0.35 107.86-0.63 105.84-1.6 104.67-3.45 103.49-5.3 103.49-7.9L103.49-7.9 103.49-24.8Q103.49-25.3 103.99-25.3L103.99-25.3 106.54-25.3Q107.04-25.3 107.04-24.8L107.04-24.8 107.04-8.95Q107.04-6.1 108.64-4.42 110.24-2.75 112.99-2.75L112.99-2.75Q115.84-2.75 117.52-4.45 119.19-6.15 119.19-8.95L119.19-8.95 119.19-24.8ZM164.09-34.65Q164.34-35 164.69-35L164.69-35 167.28-35Q167.78-35 167.78-34.5L167.78-34.5 167.78-0.5Q167.78 0 167.28 0L167.28 0 164.74 0Q164.24 0 164.24-0.5L164.24-0.5 164.24-28.3Q164.24-28.45 164.13-28.5 164.03-28.55 163.99-28.4L163.99-28.4 155.84-15.9Q155.59-15.55 155.24-15.55L155.24-15.55 153.94-15.55Q153.59-15.55 153.34-15.85L153.34-15.85 145.19-28.25Q145.13-28.4 145.03-28.35 144.94-28.3 144.94-28.15L144.94-28.15 144.94-0.5Q144.94 0 144.44 0L144.44 0 141.88 0Q141.38 0 141.38-0.5L141.38-0.5 141.38-34.5Q141.38-35 141.88-35L141.88-35 144.49-35Q144.88-35 145.09-34.7L145.09-34.7 154.49-20.45Q154.53-20.4 154.63-20.4 154.74-20.4 154.78-20.45L154.78-20.45 164.09-34.65ZM195.83-16.9Q196.03-15.5 196.03-13.4L196.03-13.4 196.03-11.8Q196.03-11.3 195.53-11.3L195.53-11.3 179.38-11.3Q179.18-11.3 179.18-11.1L179.18-11.1Q179.28-8.35 179.48-7.55L179.48-7.55Q180.03-5.3 181.83-4 183.63-2.7 186.43-2.7L186.43-2.7Q188.53-2.7 190.13-3.65 191.73-4.6 192.63-6.35L192.63-6.35Q192.93-6.8 193.33-6.55L193.33-6.55 195.28-5.4Q195.68-5.15 195.48-4.7L195.48-4.7Q194.23-2.3 191.73-0.93 189.23 0.45 185.98 0.45L185.98 0.45Q182.43 0.4 180.03-1.25 177.63-2.9 176.58-5.85L176.58-5.85Q175.68-8.25 175.68-12.75L175.68-12.75Q175.68-14.85 175.76-16.18 175.83-17.5 176.13-18.55L176.13-18.55Q176.98-21.8 179.56-23.75 182.13-25.7 185.78-25.7L185.78-25.7Q190.33-25.7 192.78-23.4 195.23-21.1 195.83-16.9L195.83-16.9ZM185.78-22.6Q183.33-22.6 181.71-21.33 180.08-20.05 179.58-17.9L179.58-17.9Q179.28-16.85 179.18-14.5L179.18-14.5Q179.18-14.3 179.38-14.3L179.38-14.3 192.33-14.3Q192.53-14.3 192.53-14.5L192.53-14.5Q192.43-16.75 192.23-17.7L192.23-17.7Q191.68-19.95 190.01-21.28 188.33-22.6 185.78-22.6L185.78-22.6ZM203.58 0Q203.08 0 203.08-0.5L203.08-0.5 203.08-34.5Q203.08-35 203.58-35L203.58-35 206.13-35Q206.63-35 206.63-34.5L206.63-34.5 206.63-0.5Q206.63 0 206.13 0L206.13 0 203.58 0ZM224.23 0.4Q220.63 0.4 218.03-1.45 215.43-3.3 214.43-6.55L214.43-6.55Q213.73-8.85 213.73-12.7L213.73-12.7Q213.73-16.55 214.43-18.8L214.43-18.8Q215.38-22 217.98-23.85 220.58-25.7 224.28-25.7L224.28-25.7Q227.83-25.7 230.4-23.85 232.98-22 233.93-18.85L233.93-18.85Q234.63-16.7 234.63-12.7L234.63-12.7Q234.63-8.65 233.93-6.55L233.93-6.55Q232.98-3.3 230.4-1.45 227.83 0.4 224.23 0.4L224.23 0.4ZM224.23-2.7Q226.63-2.7 228.33-4.03 230.03-5.35 230.63-7.6L230.63-7.6Q231.08-9.4 231.08-12.65L231.08-12.65Q231.08-15.95 230.68-17.7L230.68-17.7Q230.08-19.95 228.35-21.28 226.63-22.6 224.18-22.6L224.18-22.6Q221.73-22.6 220.03-21.28 218.33-19.95 217.73-17.7L217.73-17.7Q217.33-15.95 217.33-12.65L217.33-12.65Q217.33-9.35 217.73-7.6L217.73-7.6Q218.28-5.35 220-4.03 221.73-2.7 224.23-2.7L224.23-2.7ZM257.53-34.5Q257.53-35 258.03-35L258.03-35 260.58-35Q261.08-35 261.08-34.5L261.08-34.5 261.08-0.5Q261.08 0 260.58 0L260.58 0 258.03 0Q257.53 0 257.53-0.5L257.53-0.5 257.53-2.6Q257.53-2.7 257.45-2.73 257.38-2.75 257.28-2.65L257.28-2.65Q256.18-1.2 254.55-0.4 252.93 0.4 250.93 0.4L250.93 0.4Q247.43 0.4 245.05-1.4 242.68-3.2 241.78-6.3L241.78-6.3Q241.08-8.55 241.08-12.65L241.08-12.65Q241.08-16.8 241.68-18.85L241.68-18.85Q242.58-22.05 244.98-23.88 247.38-25.7 250.93-25.7L250.93-25.7Q252.88-25.7 254.53-24.93 256.18-24.15 257.28-22.7L257.28-22.7Q257.38-22.6 257.45-22.63 257.53-22.65 257.53-22.75L257.53-22.75 257.53-34.5ZM256.63-6.55Q257.08-7.55 257.28-8.9 257.48-10.25 257.48-12.65L257.48-12.65Q257.48-15.05 257.28-16.43 257.08-17.8 256.58-18.85L256.58-18.85Q255.98-20.55 254.6-21.58 253.23-22.6 251.33-22.6L251.33-22.6Q249.33-22.6 247.88-21.6 246.43-20.6 245.78-18.95L245.78-18.95Q245.18-17.85 244.9-16.48 244.63-15.1 244.63-12.65L244.63-12.65Q244.63-10.3 244.83-8.97 245.03-7.65 245.53-6.6L245.53-6.6Q246.13-4.8 247.65-3.75 249.18-2.7 251.28-2.7L251.28-2.7Q253.28-2.7 254.63-3.75 255.98-4.8 256.63-6.55L256.63-6.55ZM267.97 10Q267.62 10 267.62 9.5L267.62 9.5 267.62 7.5Q267.62 7 268.12 7L268.12 7 268.32 7Q270.27 6.95 271.35 6.43 272.42 5.9 273.2 4.48 273.97 3.05 274.87 0.15L274.87 0.15Q274.97-0.05 274.87-0.15L274.87-0.15 266.42-24.75 266.37-24.95Q266.37-25.3 266.82-25.3L266.82-25.3 269.47-25.3Q269.92-25.3 270.07-24.9L270.07-24.9 276.57-4.7Q276.62-4.6 276.72-4.6 276.82-4.6 276.87-4.7L276.87-4.7 283.27-24.9Q283.42-25.3 283.87-25.3L283.87-25.3 286.47-25.3Q287.02-25.3 286.87-24.75L286.87-24.75 277.62 2.2Q276.42 5.55 275.37 7.15 274.32 8.75 272.75 9.38 271.17 10 268.32 10L268.32 10 267.97 10ZM325.57-34.65Q325.82-35 326.17-35L326.17-35 328.77-35Q329.27-35 329.27-34.5L329.27-34.5 329.27-0.5Q329.27 0 328.77 0L328.77 0 326.22 0Q325.72 0 325.72-0.5L325.72-0.5 325.72-28.3Q325.72-28.45 325.62-28.5 325.52-28.55 325.47-28.4L325.47-28.4 317.32-15.9Q317.07-15.55 316.72-15.55L316.72-15.55 315.42-15.55Q315.07-15.55 314.82-15.85L314.82-15.85 306.67-28.25Q306.62-28.4 306.52-28.35 306.42-28.3 306.42-28.15L306.42-28.15 306.42-0.5Q306.42 0 305.92 0L305.92 0 303.37 0Q302.87 0 302.87-0.5L302.87-0.5 302.87-34.5Q302.87-35 303.37-35L303.37-35 305.97-35Q306.37-35 306.57-34.7L306.57-34.7 315.97-20.45Q316.02-20.4 316.12-20.4 316.22-20.4 316.27-20.45L316.27-20.45 325.57-34.65ZM346.67-25.7Q351.17-25.7 353.62-23.4 356.06-21.1 356.06-17.3L356.06-17.3 356.06-0.5Q356.06 0 355.56 0L355.56 0 353.02 0Q352.52 0 352.52-0.5L352.52-0.5 352.52-2.55Q352.52-2.65 352.44-2.7 352.37-2.75 352.27-2.65L352.27-2.65Q351.02-1.15 349.02-0.38 347.02 0.4 344.56 0.4L344.56 0.4Q341.02 0.4 338.62-1.4 336.22-3.2 336.22-6.9L336.22-6.9Q336.22-10.65 338.94-12.83 341.67-15 346.52-15L346.52-15 352.31-15Q352.52-15 352.52-15.2L352.52-15.2 352.52-17.1Q352.52-19.65 351.09-21.13 349.67-22.6 346.67-22.6L346.67-22.6Q344.27-22.6 342.77-21.68 341.27-20.75 340.92-19.1L340.92-19.1Q340.77-18.6 340.31-18.65L340.31-18.65 337.62-19Q337.06-19.1 337.17-19.4L337.17-19.4Q337.56-22.2 340.17-23.95 342.77-25.7 346.67-25.7L346.67-25.7ZM345.27-2.65Q348.22-2.65 350.37-4.13 352.52-5.6 352.52-8.1L352.52-8.1 352.52-12Q352.52-12.2 352.31-12.2L352.31-12.2 347.06-12.2Q343.77-12.2 341.77-10.85 339.77-9.5 339.77-7.1L339.77-7.1Q339.77-4.9 341.29-3.78 342.81-2.65 345.27-2.65L345.27-2.65ZM373.96-25.65Q377.96-25.65 380.34-23.3 382.71-20.95 382.71-17L382.71-17 382.71-0.5Q382.71 0 382.21 0L382.21 0 379.66 0Q379.16 0 379.16-0.5L379.16-0.5 379.16-16.3Q379.16-19.05 377.49-20.8 375.81-22.55 373.16-22.55L373.16-22.55Q370.41-22.55 368.71-20.85 367.01-19.15 367.01-16.4L367.01-16.4 367.01-0.5Q367.01 0 366.51 0L366.51 0 363.96 0Q363.46 0 363.46-0.5L363.46-0.5 363.46-24.8Q363.46-25.3 363.96-25.3L363.96-25.3 366.51-25.3Q367.01-25.3 367.01-24.8L367.01-24.8 367.01-22.65Q367.01-22.55 367.09-22.5 367.16-22.45 367.21-22.55L367.21-22.55Q369.41-25.65 373.96-25.65L373.96-25.65ZM392.81-29.9Q391.61-29.9 390.81-30.7 390.01-31.5 390.01-32.7L390.01-32.7Q390.01-33.95 390.81-34.73 391.61-35.5 392.81-35.5L392.81-35.5Q394.01-35.5 394.81-34.73 395.61-33.95 395.61-32.7L395.61-32.7Q395.61-31.5 394.81-30.7 394.01-29.9 392.81-29.9L392.81-29.9ZM391.41-0.05Q390.91-0.05 390.91-0.55L390.91-0.55 390.91-24.85Q390.91-25.35 391.41-25.35L391.41-25.35 393.96-25.35Q394.46-25.35 394.46-24.85L394.46-24.85 394.46-0.55Q394.46-0.05 393.96-0.05L393.96-0.05 391.41-0.05ZM411.91-25.7Q416.41-25.7 418.86-23.4 421.31-21.1 421.31-17.3L421.31-17.3 421.31-0.5Q421.31 0 420.81 0L420.81 0 418.26 0Q417.76 0 417.76-0.5L417.76-0.5 417.76-2.55Q417.76-2.65 417.68-2.7 417.61-2.75 417.51-2.65L417.51-2.65Q416.26-1.15 414.26-0.38 412.26 0.4 409.81 0.4L409.81 0.4Q406.26 0.4 403.86-1.4 401.46-3.2 401.46-6.9L401.46-6.9Q401.46-10.65 404.18-12.83 406.91-15 411.76-15L411.76-15 417.56-15Q417.76-15 417.76-15.2L417.76-15.2 417.76-17.1Q417.76-19.65 416.33-21.13 414.91-22.6 411.91-22.6L411.91-22.6Q409.51-22.6 408.01-21.68 406.51-20.75 406.16-19.1L406.16-19.1Q406.01-18.6 405.56-18.65L405.56-18.65 402.86-19Q402.31-19.1 402.41-19.4L402.41-19.4Q402.81-22.2 405.41-23.95 408.01-25.7 411.91-25.7L411.91-25.7ZM410.51-2.65Q413.46-2.65 415.61-4.13 417.76-5.6 417.76-8.1L417.76-8.1 417.76-12Q417.76-12.2 417.56-12.2L417.56-12.2 412.31-12.2Q409.01-12.2 407.01-10.85 405.01-9.5 405.01-7.1L405.01-7.1Q405.01-4.9 406.53-3.78 408.06-2.65 410.51-2.65L410.51-2.65Z" opacity="1" transform="matrix(1,0,0,1,0,0)" fill="white" class="wordmark-text-0" id="SvgjsPath2354"></path></svg></g></svg></g></svg></g></svg></g><g transform="matrix(1,0,0,1,173.35731555503412,0)"><svg viewBox="0 0 48.805368889931756 59.53487281867145" height="59.53487281867145" width="48.805368889931756"><g><svg xmlns="http://www.w3.org/2000/svg" data-name="Layer 1" viewBox="28.81 26.203485701691147 36.19033372416786 44.146514298308844" x="0" y="0" height="59.53487281867145" width="48.805368889931756" class="icon-icon-0" data-fill-palette-color="accent" id="SvgjsSvg2353"><path d="M40.68 30.5A2 2 0 0 0 39.06 32.5V57.66A2 2 0 0 1 36.82 59.66 9 9 0 0 0 35.69 59.59C31.89 59.59 28.81 62 28.81 64.97S31.89 70.35 35.69 70.35 42.57 67.94 42.57 64.98V40.16A2 2 0 0 1 44.19 38.16L59.07 35.29A2 2 0 0 1 61.45 37.29V52.66A2 2 0 0 1 59.21 54.66 9 9 0 0 0 58.08 54.59C54.28 54.59 51.21 57 51.21 59.97S54.29 65.35 58.09 65.35 65 62.91 65 59.94V28.24A2 2 0 0 0 62.62 26.24Z" fill="black"></path></svg></g></svg></g><g></g></svg></g><defs><mask></mask></defs></svg><rect width="395.52" height="112.78351786513464" fill="black" stroke="none" visibility="hidden"></rect></g></mask><linearGradient x1="0.054" x2="0.941" y1="0.5" y2="0.5" id="2a7c8e3f-674d-4230-8257-459e139e406c"><stop stop-color="#8c8c8c" offset="0"></stop><stop stop-color="#e3e4e5" offset="0.498"></stop><stop stop-color="#8c8c8c" offset="1"></stop></linearGradient><rect width="395.52" height="112.78351786513464" fill="url(#2a7c8e3f-674d-4230-8257-459e139e406c)" mask="url(#76a9751a-bdcb-4476-a0da-8550abee4706)" data-fill-palette-color="primary"></rect><mask id="35d0a22c-7f0d-4a22-8ade-c844e9151126"><g id="SvgjsG2376"><svg viewBox="0 0 395.52 112.78351786513464" height="112.78351786513464" width="395.52"><g><svg viewBox="0 0 395.52 112.78351786513464" height="112.78351786513464" width="395.52"><g transform="matrix(1,0,0,1,0,69.70473869098743)"><svg viewBox="0 0 395.52 43.078779174147215" height="43.078779174147215" width="395.52"><g id="SvgjsG2375"><svg viewBox="0 0 395.52 43.078779174147215" height="43.078779174147215" width="395.52" id="SvgjsSvg2374"><g><svg viewBox="0 0 395.52 43.078779174147215" height="43.078779174147215" width="395.52"><g transform="matrix(1,0,0,1,0,0)"><svg width="395.52" viewBox="3.6 -35.5 417.71 45.5" height="43.078779174147215" data-palette-color="url(#2a7c8e3f-674d-4230-8257-459e139e406c)"></svg></g></svg></g></svg></g></svg></g><g transform="matrix(1,0,0,1,173.35731555503412,0)"><svg viewBox="0 0 48.805368889931756 59.53487281867145" height="59.53487281867145" width="48.805368889931756"><g><svg xmlns="http://www.w3.org/2000/svg" data-name="Layer 1" viewBox="28.81 26.203485701691147 36.19033372416786 44.146514298308844" x="0" y="0" height="59.53487281867145" width="48.805368889931756" class="icon-icon-0" data-fill-palette-color="accent" id="SvgjsSvg2373"><path d="M40.68 30.5A2 2 0 0 0 39.06 32.5V57.66A2 2 0 0 1 36.82 59.66 9 9 0 0 0 35.69 59.59C31.89 59.59 28.81 62 28.81 64.97S31.89 70.35 35.69 70.35 42.57 67.94 42.57 64.98V40.16A2 2 0 0 1 44.19 38.16L59.07 35.29A2 2 0 0 1 61.45 37.29V52.66A2 2 0 0 1 59.21 54.66 9 9 0 0 0 58.08 54.59C54.28 54.59 51.21 57 51.21 59.97S54.29 65.35 58.09 65.35 65 62.91 65 59.94V28.24A2 2 0 0 0 62.62 26.24Z" fill="white"></path></svg></g></svg></g><g></g></svg></g><defs><mask></mask></defs><mask><g id="SvgjsG2372"><svg viewBox="0 0 395.52 112.78351786513464" height="112.78351786513464" width="395.52"><g><svg viewBox="0 0 395.52 112.78351786513464" height="112.78351786513464" width="395.52"><g transform="matrix(1,0,0,1,0,69.70473869098743)"><svg viewBox="0 0 395.52 43.078779174147215" height="43.078779174147215" width="395.52"><g id="SvgjsG2371"><svg viewBox="0 0 395.52 43.078779174147215" height="43.078779174147215" width="395.52" id="SvgjsSvg2370"><g><svg viewBox="0 0 395.52 43.078779174147215" height="43.078779174147215" width="395.52"><g transform="matrix(1,0,0,1,0,0)"><svg width="395.52" viewBox="3.6 -35.5 417.71 45.5" height="43.078779174147215" data-palette-color="url(#2a7c8e3f-674d-4230-8257-459e139e406c)"><path d="M15.5 0.4Q11.95 0.4 9.25-1.05 6.55-2.5 5.08-5.13 3.6-7.75 3.6-11.2L3.6-11.2 3.6-23.8Q3.6-27.25 5.08-29.88 6.55-32.5 9.25-33.95 11.95-35.4 15.5-35.4L15.5-35.4Q19.05-35.4 21.78-33.95 24.5-32.5 25.98-29.88 27.45-27.25 27.45-23.8L27.45-23.8 27.45-11.2Q27.45-7.75 25.98-5.13 24.5-2.5 21.78-1.05 19.05 0.4 15.5 0.4L15.5 0.4ZM15.5-2.65Q19.3-2.65 21.6-4.95 23.9-7.25 23.9-11.05L23.9-11.05 23.9-23.85Q23.9-27.65 21.6-29.98 19.3-32.3 15.5-32.3L15.5-32.3Q11.75-32.3 9.45-29.98 7.15-27.65 7.15-23.85L7.15-23.85 7.15-11.05Q7.15-7.25 9.45-4.95 11.75-2.65 15.5-2.65L15.5-2.65ZM46.45-22.85Q46.45-22.35 45.95-22.35L45.95-22.35 40.3-22.35Q40.1-22.35 40.1-22.15L40.1-22.15 40.1-7.4Q40.1-5 41.17-4.03 42.25-3.05 44.55-3.05L44.55-3.05 45.8-3.05Q46.3-3.05 46.3-2.55L46.3-2.55 46.3-0.5Q46.3 0 45.8 0L45.8 0Q45.2 0.05 43.95 0.05L43.95 0.05Q40.35 0.05 38.5-1.3 36.65-2.65 36.65-6.3L36.65-6.3 36.65-22.15Q36.65-22.35 36.45-22.35L36.45-22.35 33.4-22.35Q32.9-22.35 32.9-22.85L32.9-22.85 32.9-24.8Q32.9-25.3 33.4-25.3L33.4-25.3 36.45-25.3Q36.65-25.3 36.65-25.5L36.65-25.5 36.65-31.3Q36.65-31.8 37.15-31.8L37.15-31.8 39.6-31.8Q40.1-31.8 40.1-31.3L40.1-31.3 40.1-25.5Q40.1-25.3 40.3-25.3L40.3-25.3 45.95-25.3Q46.45-25.3 46.45-24.8L46.45-24.8 46.45-22.85ZM62.05-25.7Q66.55-25.7 69-23.4 71.45-21.1 71.45-17.3L71.45-17.3 71.45-0.5Q71.45 0 70.95 0L70.95 0 68.4 0Q67.9 0 67.9-0.5L67.9-0.5 67.9-2.55Q67.9-2.65 67.82-2.7 67.75-2.75 67.65-2.65L67.65-2.65Q66.4-1.15 64.4-0.38 62.4 0.4 59.95 0.4L59.95 0.4Q56.4 0.4 54-1.4 51.59-3.2 51.59-6.9L51.59-6.9Q51.59-10.65 54.32-12.83 57.05-15 61.9-15L61.9-15 67.7-15Q67.9-15 67.9-15.2L67.9-15.2 67.9-17.1Q67.9-19.65 66.47-21.13 65.05-22.6 62.05-22.6L62.05-22.6Q59.65-22.6 58.15-21.68 56.65-20.75 56.3-19.1L56.3-19.1Q56.15-18.6 55.7-18.65L55.7-18.65 53-19Q52.45-19.1 52.55-19.4L52.55-19.4Q52.95-22.2 55.55-23.95 58.15-25.7 62.05-25.7L62.05-25.7ZM60.65-2.65Q63.59-2.65 65.75-4.13 67.9-5.6 67.9-8.1L67.9-8.1 67.9-12Q67.9-12.2 67.7-12.2L67.7-12.2 62.45-12.2Q59.15-12.2 57.15-10.85 55.15-9.5 55.15-7.1L55.15-7.1Q55.15-4.9 56.67-3.78 58.2-2.65 60.65-2.65L60.65-2.65ZM79.34 0Q78.84 0 78.84-0.5L78.84-0.5 78.84-34.5Q78.84-35 79.34-35L79.34-35 81.89-35Q82.39-35 82.39-34.5L82.39-34.5 82.39-14.05Q82.39-13.95 82.47-13.9 82.54-13.85 82.64-13.95L82.64-13.95 93.24-25.05Q93.49-25.3 93.84-25.3L93.84-25.3 96.84-25.3Q97.14-25.3 97.24-25.1 97.34-24.9 97.14-24.7L97.14-24.7 90.74-17.6Q90.64-17.5 90.69-17.35L90.69-17.35 98.34-0.6 98.39-0.4Q98.39 0 97.94 0L97.94 0 95.24 0Q94.84 0 94.69-0.4L94.69-0.4 88.24-15Q88.14-15.2 87.99-15.05L87.99-15.05 82.49-9.25Q82.39-9.15 82.39-9L82.39-9 82.39-0.5Q82.39 0 81.89 0L81.89 0 79.34 0ZM119.19-24.8Q119.19-25.3 119.69-25.3L119.69-25.3 122.24-25.3Q122.74-25.3 122.74-24.8L122.74-24.8 122.74-0.5Q122.74 0 122.24 0L122.24 0 119.69 0Q119.19 0 119.19-0.5L119.19-0.5 119.19-2.65Q119.19-2.75 119.09-2.8 118.99-2.85 118.94-2.75L118.94-2.75Q116.84 0.35 112.29 0.35L112.29 0.35Q109.89 0.35 107.86-0.63 105.84-1.6 104.67-3.45 103.49-5.3 103.49-7.9L103.49-7.9 103.49-24.8Q103.49-25.3 103.99-25.3L103.99-25.3 106.54-25.3Q107.04-25.3 107.04-24.8L107.04-24.8 107.04-8.95Q107.04-6.1 108.64-4.42 110.24-2.75 112.99-2.75L112.99-2.75Q115.84-2.75 117.52-4.45 119.19-6.15 119.19-8.95L119.19-8.95 119.19-24.8ZM164.09-34.65Q164.34-35 164.69-35L164.69-35 167.28-35Q167.78-35 167.78-34.5L167.78-34.5 167.78-0.5Q167.78 0 167.28 0L167.28 0 164.74 0Q164.24 0 164.24-0.5L164.24-0.5 164.24-28.3Q164.24-28.45 164.13-28.5 164.03-28.55 163.99-28.4L163.99-28.4 155.84-15.9Q155.59-15.55 155.24-15.55L155.24-15.55 153.94-15.55Q153.59-15.55 153.34-15.85L153.34-15.85 145.19-28.25Q145.13-28.4 145.03-28.35 144.94-28.3 144.94-28.15L144.94-28.15 144.94-0.5Q144.94 0 144.44 0L144.44 0 141.88 0Q141.38 0 141.38-0.5L141.38-0.5 141.38-34.5Q141.38-35 141.88-35L141.88-35 144.49-35Q144.88-35 145.09-34.7L145.09-34.7 154.49-20.45Q154.53-20.4 154.63-20.4 154.74-20.4 154.78-20.45L154.78-20.45 164.09-34.65ZM195.83-16.9Q196.03-15.5 196.03-13.4L196.03-13.4 196.03-11.8Q196.03-11.3 195.53-11.3L195.53-11.3 179.38-11.3Q179.18-11.3 179.18-11.1L179.18-11.1Q179.28-8.35 179.48-7.55L179.48-7.55Q180.03-5.3 181.83-4 183.63-2.7 186.43-2.7L186.43-2.7Q188.53-2.7 190.13-3.65 191.73-4.6 192.63-6.35L192.63-6.35Q192.93-6.8 193.33-6.55L193.33-6.55 195.28-5.4Q195.68-5.15 195.48-4.7L195.48-4.7Q194.23-2.3 191.73-0.93 189.23 0.45 185.98 0.45L185.98 0.45Q182.43 0.4 180.03-1.25 177.63-2.9 176.58-5.85L176.58-5.85Q175.68-8.25 175.68-12.75L175.68-12.75Q175.68-14.85 175.76-16.18 175.83-17.5 176.13-18.55L176.13-18.55Q176.98-21.8 179.56-23.75 182.13-25.7 185.78-25.7L185.78-25.7Q190.33-25.7 192.78-23.4 195.23-21.1 195.83-16.9L195.83-16.9ZM185.78-22.6Q183.33-22.6 181.71-21.33 180.08-20.05 179.58-17.9L179.58-17.9Q179.28-16.85 179.18-14.5L179.18-14.5Q179.18-14.3 179.38-14.3L179.38-14.3 192.33-14.3Q192.53-14.3 192.53-14.5L192.53-14.5Q192.43-16.75 192.23-17.7L192.23-17.7Q191.68-19.95 190.01-21.28 188.33-22.6 185.78-22.6L185.78-22.6ZM203.58 0Q203.08 0 203.08-0.5L203.08-0.5 203.08-34.5Q203.08-35 203.58-35L203.58-35 206.13-35Q206.63-35 206.63-34.5L206.63-34.5 206.63-0.5Q206.63 0 206.13 0L206.13 0 203.58 0ZM224.23 0.4Q220.63 0.4 218.03-1.45 215.43-3.3 214.43-6.55L214.43-6.55Q213.73-8.85 213.73-12.7L213.73-12.7Q213.73-16.55 214.43-18.8L214.43-18.8Q215.38-22 217.98-23.85 220.58-25.7 224.28-25.7L224.28-25.7Q227.83-25.7 230.4-23.85 232.98-22 233.93-18.85L233.93-18.85Q234.63-16.7 234.63-12.7L234.63-12.7Q234.63-8.65 233.93-6.55L233.93-6.55Q232.98-3.3 230.4-1.45 227.83 0.4 224.23 0.4L224.23 0.4ZM224.23-2.7Q226.63-2.7 228.33-4.03 230.03-5.35 230.63-7.6L230.63-7.6Q231.08-9.4 231.08-12.65L231.08-12.65Q231.08-15.95 230.68-17.7L230.68-17.7Q230.08-19.95 228.35-21.28 226.63-22.6 224.18-22.6L224.18-22.6Q221.73-22.6 220.03-21.28 218.33-19.95 217.73-17.7L217.73-17.7Q217.33-15.95 217.33-12.65L217.33-12.65Q217.33-9.35 217.73-7.6L217.73-7.6Q218.28-5.35 220-4.03 221.73-2.7 224.23-2.7L224.23-2.7ZM257.53-34.5Q257.53-35 258.03-35L258.03-35 260.58-35Q261.08-35 261.08-34.5L261.08-34.5 261.08-0.5Q261.08 0 260.58 0L260.58 0 258.03 0Q257.53 0 257.53-0.5L257.53-0.5 257.53-2.6Q257.53-2.7 257.45-2.73 257.38-2.75 257.28-2.65L257.28-2.65Q256.18-1.2 254.55-0.4 252.93 0.4 250.93 0.4L250.93 0.4Q247.43 0.4 245.05-1.4 242.68-3.2 241.78-6.3L241.78-6.3Q241.08-8.55 241.08-12.65L241.08-12.65Q241.08-16.8 241.68-18.85L241.68-18.85Q242.58-22.05 244.98-23.88 247.38-25.7 250.93-25.7L250.93-25.7Q252.88-25.7 254.53-24.93 256.18-24.15 257.28-22.7L257.28-22.7Q257.38-22.6 257.45-22.63 257.53-22.65 257.53-22.75L257.53-22.75 257.53-34.5ZM256.63-6.55Q257.08-7.55 257.28-8.9 257.48-10.25 257.48-12.65L257.48-12.65Q257.48-15.05 257.28-16.43 257.08-17.8 256.58-18.85L256.58-18.85Q255.98-20.55 254.6-21.58 253.23-22.6 251.33-22.6L251.33-22.6Q249.33-22.6 247.88-21.6 246.43-20.6 245.78-18.95L245.78-18.95Q245.18-17.85 244.9-16.48 244.63-15.1 244.63-12.65L244.63-12.65Q244.63-10.3 244.83-8.97 245.03-7.65 245.53-6.6L245.53-6.6Q246.13-4.8 247.65-3.75 249.18-2.7 251.28-2.7L251.28-2.7Q253.28-2.7 254.63-3.75 255.98-4.8 256.63-6.55L256.63-6.55ZM267.97 10Q267.62 10 267.62 9.5L267.62 9.5 267.62 7.5Q267.62 7 268.12 7L268.12 7 268.32 7Q270.27 6.95 271.35 6.43 272.42 5.9 273.2 4.48 273.97 3.05 274.87 0.15L274.87 0.15Q274.97-0.05 274.87-0.15L274.87-0.15 266.42-24.75 266.37-24.95Q266.37-25.3 266.82-25.3L266.82-25.3 269.47-25.3Q269.92-25.3 270.07-24.9L270.07-24.9 276.57-4.7Q276.62-4.6 276.72-4.6 276.82-4.6 276.87-4.7L276.87-4.7 283.27-24.9Q283.42-25.3 283.87-25.3L283.87-25.3 286.47-25.3Q287.02-25.3 286.87-24.75L286.87-24.75 277.62 2.2Q276.42 5.55 275.37 7.15 274.32 8.75 272.75 9.38 271.17 10 268.32 10L268.32 10 267.97 10ZM325.57-34.65Q325.82-35 326.17-35L326.17-35 328.77-35Q329.27-35 329.27-34.5L329.27-34.5 329.27-0.5Q329.27 0 328.77 0L328.77 0 326.22 0Q325.72 0 325.72-0.5L325.72-0.5 325.72-28.3Q325.72-28.45 325.62-28.5 325.52-28.55 325.47-28.4L325.47-28.4 317.32-15.9Q317.07-15.55 316.72-15.55L316.72-15.55 315.42-15.55Q315.07-15.55 314.82-15.85L314.82-15.85 306.67-28.25Q306.62-28.4 306.52-28.35 306.42-28.3 306.42-28.15L306.42-28.15 306.42-0.5Q306.42 0 305.92 0L305.92 0 303.37 0Q302.87 0 302.87-0.5L302.87-0.5 302.87-34.5Q302.87-35 303.37-35L303.37-35 305.97-35Q306.37-35 306.57-34.7L306.57-34.7 315.97-20.45Q316.02-20.4 316.12-20.4 316.22-20.4 316.27-20.45L316.27-20.45 325.57-34.65ZM346.67-25.7Q351.17-25.7 353.62-23.4 356.06-21.1 356.06-17.3L356.06-17.3 356.06-0.5Q356.06 0 355.56 0L355.56 0 353.02 0Q352.52 0 352.52-0.5L352.52-0.5 352.52-2.55Q352.52-2.65 352.44-2.7 352.37-2.75 352.27-2.65L352.27-2.65Q351.02-1.15 349.02-0.38 347.02 0.4 344.56 0.4L344.56 0.4Q341.02 0.4 338.62-1.4 336.22-3.2 336.22-6.9L336.22-6.9Q336.22-10.65 338.94-12.83 341.67-15 346.52-15L346.52-15 352.31-15Q352.52-15 352.52-15.2L352.52-15.2 352.52-17.1Q352.52-19.65 351.09-21.13 349.67-22.6 346.67-22.6L346.67-22.6Q344.27-22.6 342.77-21.68 341.27-20.75 340.92-19.1L340.92-19.1Q340.77-18.6 340.31-18.65L340.31-18.65 337.62-19Q337.06-19.1 337.17-19.4L337.17-19.4Q337.56-22.2 340.17-23.95 342.77-25.7 346.67-25.7L346.67-25.7ZM345.27-2.65Q348.22-2.65 350.37-4.13 352.52-5.6 352.52-8.1L352.52-8.1 352.52-12Q352.52-12.2 352.31-12.2L352.31-12.2 347.06-12.2Q343.77-12.2 341.77-10.85 339.77-9.5 339.77-7.1L339.77-7.1Q339.77-4.9 341.29-3.78 342.81-2.65 345.27-2.65L345.27-2.65ZM373.96-25.65Q377.96-25.65 380.34-23.3 382.71-20.95 382.71-17L382.71-17 382.71-0.5Q382.71 0 382.21 0L382.21 0 379.66 0Q379.16 0 379.16-0.5L379.16-0.5 379.16-16.3Q379.16-19.05 377.49-20.8 375.81-22.55 373.16-22.55L373.16-22.55Q370.41-22.55 368.71-20.85 367.01-19.15 367.01-16.4L367.01-16.4 367.01-0.5Q367.01 0 366.51 0L366.51 0 363.96 0Q363.46 0 363.46-0.5L363.46-0.5 363.46-24.8Q363.46-25.3 363.96-25.3L363.96-25.3 366.51-25.3Q367.01-25.3 367.01-24.8L367.01-24.8 367.01-22.65Q367.01-22.55 367.09-22.5 367.16-22.45 367.21-22.55L367.21-22.55Q369.41-25.65 373.96-25.65L373.96-25.65ZM392.81-29.9Q391.61-29.9 390.81-30.7 390.01-31.5 390.01-32.7L390.01-32.7Q390.01-33.95 390.81-34.73 391.61-35.5 392.81-35.5L392.81-35.5Q394.01-35.5 394.81-34.73 395.61-33.95 395.61-32.7L395.61-32.7Q395.61-31.5 394.81-30.7 394.01-29.9 392.81-29.9L392.81-29.9ZM391.41-0.05Q390.91-0.05 390.91-0.55L390.91-0.55 390.91-24.85Q390.91-25.35 391.41-25.35L391.41-25.35 393.96-25.35Q394.46-25.35 394.46-24.85L394.46-24.85 394.46-0.55Q394.46-0.05 393.96-0.05L393.96-0.05 391.41-0.05ZM411.91-25.7Q416.41-25.7 418.86-23.4 421.31-21.1 421.31-17.3L421.31-17.3 421.31-0.5Q421.31 0 420.81 0L420.81 0 418.26 0Q417.76 0 417.76-0.5L417.76-0.5 417.76-2.55Q417.76-2.65 417.68-2.7 417.61-2.75 417.51-2.65L417.51-2.65Q416.26-1.15 414.26-0.38 412.26 0.4 409.81 0.4L409.81 0.4Q406.26 0.4 403.86-1.4 401.46-3.2 401.46-6.9L401.46-6.9Q401.46-10.65 404.18-12.83 406.91-15 411.76-15L411.76-15 417.56-15Q417.76-15 417.76-15.2L417.76-15.2 417.76-17.1Q417.76-19.65 416.33-21.13 414.91-22.6 411.91-22.6L411.91-22.6Q409.51-22.6 408.01-21.68 406.51-20.75 406.16-19.1L406.16-19.1Q406.01-18.6 405.56-18.65L405.56-18.65 402.86-19Q402.31-19.1 402.41-19.4L402.41-19.4Q402.81-22.2 405.41-23.95 408.01-25.7 411.91-25.7L411.91-25.7ZM410.51-2.65Q413.46-2.65 415.61-4.13 417.76-5.6 417.76-8.1L417.76-8.1 417.76-12Q417.76-12.2 417.56-12.2L417.56-12.2 412.31-12.2Q409.01-12.2 407.01-10.85 405.01-9.5 405.01-7.1L405.01-7.1Q405.01-4.9 406.53-3.78 408.06-2.65 410.51-2.65L410.51-2.65Z" opacity="1" transform="matrix(1,0,0,1,0,0)" fill="black" class="wordmark-text-0" id="SvgjsPath2369"></path></svg></g></svg></g></svg></g></svg></g><g transform="matrix(1,0,0,1,173.35731555503412,0)"><svg viewBox="0 0 48.805368889931756 59.53487281867145" height="59.53487281867145" width="48.805368889931756"><g><svg xmlns="http://www.w3.org/2000/svg" data-name="Layer 1" viewBox="28.81 26.203485701691147 36.19033372416786 44.146514298308844" x="0" y="0" height="59.53487281867145" width="48.805368889931756" class="icon-icon-0" data-fill-palette-color="accent" id="SvgjsSvg2368"><path d="M40.68 30.5A2 2 0 0 0 39.06 32.5V57.66A2 2 0 0 1 36.82 59.66 9 9 0 0 0 35.69 59.59C31.89 59.59 28.81 62 28.81 64.97S31.89 70.35 35.69 70.35 42.57 67.94 42.57 64.98V40.16A2 2 0 0 1 44.19 38.16L59.07 35.29A2 2 0 0 1 61.45 37.29V52.66A2 2 0 0 1 59.21 54.66 9 9 0 0 0 58.08 54.59C54.28 54.59 51.21 57 51.21 59.97S54.29 65.35 58.09 65.35 65 62.91 65 59.94V28.24A2 2 0 0 0 62.62 26.24Z" fill="black"></path></svg></g></svg></g><g></g></svg></g><defs><mask></mask></defs></svg><rect width="395.52" height="112.78351786513464" fill="black" stroke="none" visibility="hidden"></rect></g></mask></svg><rect width="395.52" height="112.78351786513464" fill="black" stroke="none" visibility="hidden"></rect></g></mask><linearGradient x1="0.054" x2="0.941" y1="0.5" y2="0.5" id="c40d8d55-8977-4769-a845-a7795463949c"><stop stop-color="#8c8c8c" offset="0"></stop><stop stop-color="#e3e4e5" offset="0.498"></stop><stop stop-color="#8c8c8c" offset="1"></stop></linearGradient><rect width="395.52" height="112.78351786513464" fill="url(#c40d8d55-8977-4769-a845-a7795463949c)" mask="url(#35d0a22c-7f0d-4a22-8ade-c844e9151126)" data-fill-palette-color="accent"></rect></svg><rect width="395.52" height="112.78351786513464" fill="none" stroke="none" visibility="hidden"></rect></g></svg></g></svg>